<?xml version="1.0" encoding="UTF-8"?>
<svg width="512px" height="512px" viewBox="0 0 512 512" xmlns="http://www.w3.org/2000/svg" xmlns:xlink="http://www.w3.org/1999/xlink" version="1.1">
 <!-- Generated by Pixelmator Pro 1.1.3 -->
 <path id="path" d="M396.8 352 L419.2 352 C425.6 352 432 345.6 432 339.2 L432 108.8 C432 102.4 425.6 96 419.2 96 L396.8 96 C390.4 96 384 102.4 384 108.8 L384 339.2 C384 345.6 390.4 352 396.8 352 Z M204.8 352 L227.2 352 C233.6 352 240 345.6 240 339.2 L240 140.8 C240 134.4 233.6 128 227.2 128 L204.8 128 C198.4 128 192 134.4 192 140.8 L192 339.2 C192 345.6 198.4 352 204.8 352 Z M300.8 352 L323.2 352 C329.6 352 336 345.6 336 339.2 L336 204.8 C336 198.4 329.6 192 323.2 192 L300.8 192 C294.4 192 288 198.4 288 204.8 L288 339.2 C288 345.6 294.4 352 300.8 352 Z M496 400 L48 400 48 80 C48 71.16 40.84 64 32 64 L16 64 C7.16 64 0 71.16 0 80 L0 416 C0 433.67 14.33 448 32 448 L496 448 C504.84 448 512 440.84 512 432 L512 416 C512 407.16 504.84 400 496 400 Z M108.8 352 L131.2 352 C137.6 352 144 345.6 144 339.2 L144 268.8 C144 262.4 137.6 256 131.2 256 L108.8 256 C102.4 256 96 262.4 96 268.8 L96 339.2 C96 345.6 102.4 352 108.8 352 Z" fill="#ffffff" fill-opacity="1" stroke="none"/>
</svg>
